<svg width="16" height="14" viewBox="0 0 16 14" fill="none" xmlns="http://www.w3.org/2000/svg">
<path d="M13.6584 8.63577C13.4698 8.63577 13.3168 8.79716 13.3168 8.99628V12.1973C13.3162 12.7944 12.8579 13.2783 12.2921 13.2788H2.70788C2.14214 13.2783 1.68382 12.7944 1.68315 12.1973V2.80258C1.68382 2.20562 2.14214 1.72174 2.70788 1.72103H5.74069C5.92936 1.72103 6.08226 1.55965 6.08226 1.36052C6.08226 1.16153 5.92936 1 5.74069 1H2.70788C1.76507 1.00113 1.00107 1.8075 1 2.80258V12.1974C1.00107 13.1925 1.76507 13.9989 2.70788 14H12.2921C13.2349 13.9989 13.9989 13.1925 14 12.1974V8.99628C14 8.79716 13.8471 8.63577 13.6584 8.63577Z" fill="black"/>
<path fill-rule="evenodd" clip-rule="evenodd" d="M11.6799 0.4493C12.339 -0.149767 13.4074 -0.149767 14.0665 0.4493L14.5065 0.8493C15.1645 1.44877 15.1645 2.41921 14.5065 3.01867L7.81641 9.10029C7.77056 9.14197 7.71373 9.17206 7.65133 9.18777L4.47511 9.98764C4.34488 10.0204 4.20543 9.98697 4.10978 9.90016C4.01427 9.81321 3.9775 9.68644 4.01368 9.56807L4.89347 6.68085C4.91075 6.62413 4.94386 6.57246 4.98971 6.53079L11.6799 0.4493ZM11.2822 1.775L5.8068 6.75236L7.57252 8.35755L13.0481 3.38019L11.2822 1.775ZM5.45406 7.39576L6.86485 8.67832L4.91339 9.1698L5.45406 7.39576ZM13.5785 2.89817L13.9762 2.53665C14.3417 2.20363 14.3417 1.66448 13.9762 1.33132L13.536 0.931324C13.17 0.598568 12.5764 0.598568 12.2104 0.931324L11.8125 1.29284L13.5785 2.89817Z" fill="black"/>
</svg>
