<svg width="14" height="13" viewBox="0 0 14 13" fill="none" xmlns="http://www.w3.org/2000/svg">
<path d="M7.67591 0.408106L9.25493 3.51473C9.36474 3.7308 9.57705 3.88051 9.82265 3.91511L13.3536 4.41331C13.9721 4.50065 14.2189 5.23845 13.7715 5.6618L11.2165 8.07995C11.039 8.2481 10.9578 8.49054 10.9998 8.72787L11.6029 12.1424C11.7086 12.7404 11.062 13.1964 10.5089 12.9143L7.35088 11.3023C7.13127 11.1903 6.86873 11.1903 6.64912 11.3023L3.49108 12.9143C2.93797 13.1967 2.29141 12.7404 2.39712 12.1424L3.00017 8.72787C3.04222 8.49054 2.96104 8.2481 2.78348 8.07995L0.228484 5.6618C-0.218911 5.23817 0.0278572 4.50036 0.646383 4.41331L4.17735 3.91511C4.42295 3.88051 4.63526 3.7308 4.74507 3.51473L6.32409 0.408106C6.60035 -0.136035 7.39935 -0.136035 7.67591 0.408106Z" fill="#0C2A4D"/>
</svg>
