<svg width="22" height="16" viewBox="0 0 22 16" fill="none" xmlns="http://www.w3.org/2000/svg">
<path fill-rule="evenodd" clip-rule="evenodd" d="M16.0821 0C18.8822 0 20.3484 0.397936 21.1425 1.37349C21.9403 2.35336 22 3.85424 22 6.03203V9.96804C22 12.4636 21.6191 13.9051 20.7264 14.7879C19.8559 15.6489 18.5104 16 16.0821 16H5.91772C0.9152 16 0 13.9687 0 9.96804V6.03203C0 3.96696 0 2.47489 0.771348 1.46223C1.5625 0.423604 3.05353 0 5.91772 0H16.0821ZM9.03237 10.9223L13.6212 8.59846C13.8543 8.48046 14.0003 8.24658 14 7.99158C13.9996 7.73678 13.853 7.50324 13.6196 7.38579L9.03075 5.07695C8.8121 4.96688 8.54998 4.97536 8.33923 5.09938C8.12855 5.22339 8 5.44489 8 5.68363V10.3163C8 10.5555 8.12891 10.7772 8.34001 10.9011C8.45212 10.9669 8.5787 11 8.70556 11C8.8176 11 8.92978 10.9742 9.03237 10.9223Z" fill="#858892"/>
</svg>
